<mxfile host="app.diagrams.net" agent="Mozilla/5.0 (Windows NT 10.0; Win64; x64) AppleWebKit/537.36 (KHTML, like Gecko) Chrome/129.0.0.0 Safari/537.36 Edg/129.0.0.0" version="24.7.17">
  <diagram name="Page-1" id="ZoBpS9ULMKsurSDR5Dd5">
    <mxGraphModel dx="1042" dy="567" grid="1" gridSize="10" guides="1" tooltips="1" connect="1" arrows="1" fold="1" page="1" pageScale="1" pageWidth="850" pageHeight="1100" math="0" shadow="0">
      <root>
        <mxCell id="0" />
        <mxCell id="1" parent="0" />
        <mxCell id="jDBzE5OQdNNUkfz2zdLo-3" value="&lt;b&gt;Machine Info&lt;/b&gt;" style="rounded=1;whiteSpace=wrap;html=1;" vertex="1" parent="1">
          <mxGeometry x="40" y="90" width="120" height="40" as="geometry" />
        </mxCell>
        <mxCell id="jDBzE5OQdNNUkfz2zdLo-30" value="" style="edgeStyle=orthogonalEdgeStyle;rounded=0;orthogonalLoop=1;jettySize=auto;html=1;" edge="1" parent="1" source="jDBzE5OQdNNUkfz2zdLo-4" target="jDBzE5OQdNNUkfz2zdLo-5">
          <mxGeometry relative="1" as="geometry" />
        </mxCell>
        <mxCell id="jDBzE5OQdNNUkfz2zdLo-4" value="&lt;b&gt;Create Workspace&lt;/b&gt;" style="rounded=1;whiteSpace=wrap;html=1;" vertex="1" parent="1">
          <mxGeometry x="40" y="160" width="120" height="40" as="geometry" />
        </mxCell>
        <mxCell id="jDBzE5OQdNNUkfz2zdLo-10" style="edgeStyle=orthogonalEdgeStyle;rounded=0;orthogonalLoop=1;jettySize=auto;html=1;exitX=1;exitY=0.5;exitDx=0;exitDy=0;entryX=0;entryY=0.5;entryDx=0;entryDy=0;" edge="1" parent="1" source="jDBzE5OQdNNUkfz2zdLo-5" target="jDBzE5OQdNNUkfz2zdLo-8">
          <mxGeometry relative="1" as="geometry" />
        </mxCell>
        <mxCell id="jDBzE5OQdNNUkfz2zdLo-11" style="edgeStyle=orthogonalEdgeStyle;rounded=0;orthogonalLoop=1;jettySize=auto;html=1;exitX=1;exitY=0.5;exitDx=0;exitDy=0;entryX=0;entryY=0.5;entryDx=0;entryDy=0;" edge="1" parent="1" source="jDBzE5OQdNNUkfz2zdLo-5" target="jDBzE5OQdNNUkfz2zdLo-9">
          <mxGeometry relative="1" as="geometry" />
        </mxCell>
        <mxCell id="jDBzE5OQdNNUkfz2zdLo-5" value="&lt;b&gt;Bitbake operations&lt;/b&gt;" style="rounded=1;whiteSpace=wrap;html=1;" vertex="1" parent="1">
          <mxGeometry x="40" y="240" width="120" height="60" as="geometry" />
        </mxCell>
        <mxCell id="jDBzE5OQdNNUkfz2zdLo-6" value="" style="endArrow=classic;html=1;rounded=0;exitX=1;exitY=0.5;exitDx=0;exitDy=0;" edge="1" parent="1" source="jDBzE5OQdNNUkfz2zdLo-5">
          <mxGeometry width="50" height="50" relative="1" as="geometry">
            <mxPoint x="400" y="220" as="sourcePoint" />
            <mxPoint x="230" y="270" as="targetPoint" />
          </mxGeometry>
        </mxCell>
        <mxCell id="jDBzE5OQdNNUkfz2zdLo-7" value="&lt;b&gt;Build stage&lt;/b&gt;" style="rounded=1;whiteSpace=wrap;html=1;" vertex="1" parent="1">
          <mxGeometry x="230" y="250" width="120" height="30" as="geometry" />
        </mxCell>
        <mxCell id="jDBzE5OQdNNUkfz2zdLo-8" value="&lt;b&gt;Package Index&lt;/b&gt;" style="rounded=1;whiteSpace=wrap;html=1;" vertex="1" parent="1">
          <mxGeometry x="230" y="330" width="120" height="30" as="geometry" />
        </mxCell>
        <mxCell id="jDBzE5OQdNNUkfz2zdLo-9" value="&lt;b&gt;Stage&lt;/b&gt;" style="rounded=1;whiteSpace=wrap;html=1;" vertex="1" parent="1">
          <mxGeometry x="230" y="420" width="120" height="30" as="geometry" />
        </mxCell>
        <mxCell id="jDBzE5OQdNNUkfz2zdLo-12" value="" style="endArrow=classic;html=1;rounded=0;exitX=0.42;exitY=1.04;exitDx=0;exitDy=0;exitPerimeter=0;entryX=0.427;entryY=-0.053;entryDx=0;entryDy=0;entryPerimeter=0;" edge="1" parent="1" source="jDBzE5OQdNNUkfz2zdLo-7" target="jDBzE5OQdNNUkfz2zdLo-8">
          <mxGeometry width="50" height="50" relative="1" as="geometry">
            <mxPoint x="400" y="420" as="sourcePoint" />
            <mxPoint x="450" y="370" as="targetPoint" />
          </mxGeometry>
        </mxCell>
        <mxCell id="jDBzE5OQdNNUkfz2zdLo-13" value="" style="endArrow=classic;html=1;rounded=0;entryX=0.427;entryY=0.093;entryDx=0;entryDy=0;entryPerimeter=0;" edge="1" parent="1" target="jDBzE5OQdNNUkfz2zdLo-9">
          <mxGeometry width="50" height="50" relative="1" as="geometry">
            <mxPoint x="281" y="361" as="sourcePoint" />
            <mxPoint x="291" y="338" as="targetPoint" />
          </mxGeometry>
        </mxCell>
        <mxCell id="jDBzE5OQdNNUkfz2zdLo-15" value="Make" style="ellipse;whiteSpace=wrap;html=1;" vertex="1" parent="1">
          <mxGeometry x="425" y="315" width="155" height="60" as="geometry" />
        </mxCell>
        <mxCell id="jDBzE5OQdNNUkfz2zdLo-16" value="" style="endArrow=classic;html=1;rounded=0;exitX=1;exitY=0.5;exitDx=0;exitDy=0;" edge="1" parent="1" source="jDBzE5OQdNNUkfz2zdLo-7">
          <mxGeometry width="50" height="50" relative="1" as="geometry">
            <mxPoint x="400" y="320" as="sourcePoint" />
            <mxPoint x="420" y="320" as="targetPoint" />
          </mxGeometry>
        </mxCell>
        <mxCell id="jDBzE5OQdNNUkfz2zdLo-17" value="" style="endArrow=classic;html=1;rounded=0;exitX=1;exitY=0.5;exitDx=0;exitDy=0;" edge="1" parent="1" source="jDBzE5OQdNNUkfz2zdLo-8">
          <mxGeometry width="50" height="50" relative="1" as="geometry">
            <mxPoint x="400" y="320" as="sourcePoint" />
            <mxPoint x="410" y="345" as="targetPoint" />
          </mxGeometry>
        </mxCell>
        <mxCell id="jDBzE5OQdNNUkfz2zdLo-18" value="" style="endArrow=classic;html=1;rounded=0;exitX=1;exitY=0.5;exitDx=0;exitDy=0;" edge="1" parent="1" source="jDBzE5OQdNNUkfz2zdLo-9">
          <mxGeometry width="50" height="50" relative="1" as="geometry">
            <mxPoint x="400" y="320" as="sourcePoint" />
            <mxPoint x="420" y="380" as="targetPoint" />
          </mxGeometry>
        </mxCell>
        <mxCell id="jDBzE5OQdNNUkfz2zdLo-20" value="Calling Make function" style="text;html=1;align=center;verticalAlign=middle;whiteSpace=wrap;rounded=0;" vertex="1" parent="1">
          <mxGeometry x="410" y="260" width="60" height="30" as="geometry" />
        </mxCell>
        <mxCell id="jDBzE5OQdNNUkfz2zdLo-21" value="&lt;h1 style=&quot;margin-top: 0px;&quot;&gt;Make commands&lt;/h1&gt;&lt;div&gt;Ran make commands&amp;nbsp;&lt;br&gt;make file present in the build repo&lt;/div&gt;" style="text;html=1;whiteSpace=wrap;overflow=hidden;rounded=0;" vertex="1" parent="1">
          <mxGeometry x="570" y="225" width="210" height="90" as="geometry" />
        </mxCell>
        <mxCell id="jDBzE5OQdNNUkfz2zdLo-24" value="Uploads build output to artifact" style="html=1;shadow=0;dashed=0;align=center;verticalAlign=middle;shape=mxgraph.arrows2.arrow;dy=0;dx=10;notch=10;" vertex="1" parent="1">
          <mxGeometry x="400" y="420" width="240" height="30" as="geometry" />
        </mxCell>
        <mxCell id="jDBzE5OQdNNUkfz2zdLo-26" value="Build.manifest" style="whiteSpace=wrap;html=1;fontStyle=1" vertex="1" parent="1">
          <mxGeometry x="20" y="20" width="170" height="40" as="geometry" />
        </mxCell>
        <mxCell id="jDBzE5OQdNNUkfz2zdLo-32" value="" style="endArrow=classic;html=1;rounded=0;exitX=0.5;exitY=1;exitDx=0;exitDy=0;entryX=0.5;entryY=0;entryDx=0;entryDy=0;" edge="1" parent="1" source="jDBzE5OQdNNUkfz2zdLo-3" target="jDBzE5OQdNNUkfz2zdLo-4">
          <mxGeometry width="50" height="50" relative="1" as="geometry">
            <mxPoint x="400" y="320" as="sourcePoint" />
            <mxPoint x="450" y="270" as="targetPoint" />
          </mxGeometry>
        </mxCell>
        <mxCell id="jDBzE5OQdNNUkfz2zdLo-33" value="" style="endArrow=classic;html=1;rounded=0;entryX=0.5;entryY=0;entryDx=0;entryDy=0;" edge="1" parent="1" target="jDBzE5OQdNNUkfz2zdLo-3">
          <mxGeometry width="50" height="50" relative="1" as="geometry">
            <mxPoint x="100" y="60" as="sourcePoint" />
            <mxPoint x="450" y="270" as="targetPoint" />
          </mxGeometry>
        </mxCell>
      </root>
    </mxGraphModel>
  </diagram>
</mxfile>
